<svg xmlns="http://www.w3.org/2000/svg" width="109" height="71" viewBox="0 0 109 71">
  <g fill="#FFF">
    <path d="M100 47.7s-1.2-9-5.3-12.8c-3.3-3-13.8-7.9-41.9-9.1C23.7 24.7 0 35.7 0 47.7s23.7 21.8 52.8 21.8"/>
    <path d="M100 47.6s-1.2 9-5.3 12.8c-3.3 3-13.8 7.9-41.9 9.1C23.7 70.7 0 59.7 0 47.6s23.7-21.8 52.8-21.8"/>
  </g>
  <path fill="#FFF" d="M100.9 69.1c-8 3.7-17.4.3-21.1-7.7l14.4-6.7 6.7 14.4z"/>
  <path fill="#E5C129" d="M98.5 68.1c-5.3 2.5-11.6.2-14.1-5.1l9.6-4.5 4.5 9.6z"/>
  <path fill="#FFF" d="M100.7 26.4c-8-3.7-17.4-.3-21.1 7.7L94 40.8l6.7-14.4zM108.5 60c-7.9 0-14.3-5.6-14.3-12.5S100.6 35 108.5 35M42 19h-8.1V0H42l4.1 9.5z"/>
  <ellipse fill="#FFF" cx="49.9" cy="25.2" rx="10.5" ry="4.3"/>
  <ellipse fill="#FFF" cx="49.9" cy="27.5" rx="14.1" ry="5.7"/>
  <path fill="#FFF" d="M37.6 17.6c-4.4 0-8-3.6-8-8s3.6-8 8-8"/>
  <path fill="#FEE03B" stroke="#FFF" stroke-width="2" stroke-miterlimit="10" d="M36.5 5.5h11.6c3.2 0 5.9 2.7 5.9 5.9v15.9l-8.2-3.4v-7.4c0-1.6-1.3-2.8-2.8-2.8h-6.8"/>
  <g fill="#FEE03B">
    <path d="M98.4 47.7s-1.2-8.2-5.1-11.6c-3.2-2.8-13.3-7.2-40.4-8.2-28.1-1.2-51 8.8-51 19.8s23.2 19.7 51.4 19.7"/>
    <path d="M98.4 47.6s-1.2 8.2-5.1 11.6C90.1 62 80 66.4 52.9 67.4c-28.1 1.1-51-8.8-51-19.8s22.8-19.8 50.9-19.8"/>
  </g>
  <path fill="#FEE03B" d="M98.4 47.5s-1.2 8.2-5.1 11.6c-3.2 2.8-13.3 7.2-40.4 8.2-28.1 1.2-51-8.8-51-19.8"/>
  <ellipse fill="#E5C129" cx="49.9" cy="28.7" rx="13.5" ry="4.8"/>
  <ellipse fill="#FEE03B" cx="49.9" cy="26.3" rx="10.1" ry="3.6"/>
  <circle fill="#71D3D3" stroke="#306D85" stroke-width="5" stroke-miterlimit="10" cx="62.3" cy="47.5" r="7.2"/>
  <circle fill="#71D3D3" stroke="#306D85" stroke-width="5" stroke-miterlimit="10" cx="38.1" cy="47.5" r="7.2"/>
  <path fill="#71D3D3" d="M37.2 16c-3.6 0-6.5-2.9-6.5-6.5S33.6 3 37.2 3"/>
  <path fill="#FEE03B" d="M41 17.8h-6.1V1.5H41l3.5 8.1zM106.8 58.2c-5.9 0-10.6-4.7-10.6-10.6S101 37 106.8 37M98.3 27.3c-5.3-2.5-11.6-.2-14.1 5.1l9.6 4.5 4.5-9.6z"/>
  <g fill="#4C8F9E">
    <circle cx="38.1" cy="40.3" r=".9"/>
    <circle cx="38.1" cy="54.7" r=".9"/>
    <circle cx="45.3" cy="47.5" r=".9"/>
    <circle cx="30.8" cy="47.5" r=".9"/>
    <ellipse transform="rotate(-45 32.96 42.442)" cx="33" cy="42.4" rx=".9" ry=".9"/>
    <ellipse transform="rotate(-45 43.144 52.628)" cx="43.1" cy="52.6" rx=".9" ry=".9"/>
    <ellipse transform="rotate(-45 43.122 42.42)" cx="43.1" cy="42.4" rx=".9" ry=".9"/>
    <ellipse transform="rotate(-45 32.937 52.606)" cx="32.9" cy="52.6" rx=".9" ry=".9"/>
  </g>
  <g fill="#4C8F9E">
    <circle cx="62.3" cy="40.3" r=".9"/>
    <circle cx="62.3" cy="54.7" r=".9"/>
    <circle cx="69.5" cy="47.5" r=".9"/>
    <circle cx="55.1" cy="47.5" r=".9"/>
    <ellipse transform="rotate(-45 57.213 42.443)" cx="57.2" cy="42.4" rx=".9" ry=".9"/>
    <ellipse transform="rotate(-45 67.4 52.628)" cx="67.4" cy="52.6" rx=".9" ry=".9"/>
    <ellipse transform="rotate(-45 67.377 42.42)" cx="67.4" cy="42.4" rx=".9" ry=".9"/>
    <ellipse transform="rotate(-45 57.19 52.606)" cx="57.2" cy="52.6" rx=".9" ry=".9"/>
  </g>
  <path fill="#E5C129" d="M39.8 1.5v16.3H41l3.5-8.2L41 1.5z"/>
  <path fill="#FEE03B" d="M43 6.2h2.8V13H43z"/>
  <path fill="#E5C129" d="M46.4 18.5h6.9v1h-6.9zM46.4 20.6h6.9v1h-6.9z"/>
  <path fill="#FFF" d="M18.4 31.5h2.4V64h-2.4zM79.8 29.9h2.4v35.3h-2.4z"/>
</svg>
